<?xml version="1.0" encoding="iso-8859-1"?>
<!-- Generator: Adobe Illustrator 21.0.0, SVG Export Plug-In . SVG Version: 6.00 Build 0)  -->
<svg xmlns="http://www.w3.org/2000/svg" xmlns:xlink="http://www.w3.org/1999/xlink" version="1.1" id="Capa_1" x="0px" y="0px" viewBox="0 0 512 512" style="enable-background:new 0 0 512 512;" xml:space="preserve" width="512" height="512">
<g>
	<path style="fill:#FDBF00;" d="M301,76c0,8.399-6.599,15-15,15h-15v45c0,8.399-6.599,15-15,15s-15-6.601-15-15V91h-15   c-8.401,0-15-6.601-15-15c0-8.401,6.599-15,15-15h15V45c0-8.401,6.599-15,15-15s15,6.599,15,15v16h15C294.401,61,301,67.599,301,76   z"/>
	<path style="fill:#FF9100;" d="M256,151V30c8.401,0,15,6.599,15,15v16h15c8.401,0,15,6.599,15,15c0,8.399-6.599,15-15,15h-15v45   C271,144.399,264.401,151,256,151z"/>
	<path style="fill:#FF9100;" d="M422,247.599L392,271l-45.099,30H163.299L120,271l-30-30l30-22.5l127-94.501   c2.699-1.8,6-2.999,9-2.999s6.301,1.199,9,2.999L392,218.5L422,247.599z"/>
	<path style="fill:#F03800;" d="M422,247.599L392,271l-45.099,30H256V121c2.999,0,6.301,1.199,9,2.999L392,218.5L422,247.599z"/>
	<polygon style="fill:#9FACBA;" points="422,301 422,361 392,391 120,391 90,361 90,301 120,271 392,271  "/>
	<polygon style="fill:#8D9CA8;" points="422,301 422,361 392,391 256,391 256,271 392,271  "/>
	<polygon style="fill:#DEECF1;" points="422,433.299 422,482 392,512 331,512 301,482 211,482 181,512 120,512 90,482 90,421    120,391 256,241 392,391  "/>
	<polygon style="fill:#C5D3DD;" points="422,433.299 422,482 392,512 331,512 301,482 256,482 256,241 392,391  "/>
	<path style="fill:#DEECF1;" d="M120,121v391H75l-15-30l-15,30H15c-8.284,0-15-6.716-15-15V121l60-30L120,121z"/>
	<polygon style="fill:#C5D3DD;" points="120,121 120,512 75,512 60,482 60,91  "/>
	<path style="fill:#FFDA2D;" d="M256,211c-24.901,0-45,20.099-45,45c0,24.899,20.099,45,45,45s45-20.101,45-45   C301,231.099,280.901,211,256,211z"/>
	<path style="fill:#FF9100;" d="M271,346c0,8.399-6.599,15-15,15s-15-6.601-15-15c0-8.401,6.599-15,15-15S271,337.599,271,346z"/>
	<path style="fill:#FF641A;" d="M256,361v-30c8.401,0,15,6.599,15,15C271,354.399,264.401,361,256,361z"/>
	<path style="fill:#FDBF00;" d="M256,301v-90c24.901,0,45,20.099,45,45C301,280.899,280.901,301,256,301z"/>
	<g>
		<path style="fill:#FF9100;" d="M120,121H0L47.401,6.599C50.4,2.401,55.201,0,60,0s9.6,2.401,12.599,6.599L120,121z"/>
		<path style="fill:#F03800;" d="M120,121H60V0c4.799,0,9.6,2.401,12.599,6.599L120,121z"/>
	</g>
	<path style="fill:#7C8388;" d="M75,196v30c0,8.399-6.599,15-15,15s-15-6.601-15-15v-30c0-8.401,6.599-15,15-15S75,187.599,75,196z"/>
	<path style="fill:#7C8388;" d="M75,286v30c0,8.399-6.599,15-15,15s-15-6.601-15-15v-30c0-8.401,6.599-15,15-15S75,277.599,75,286z"/>
	<path style="fill:#C6715A;" d="M75,436v76H45v-76c0-8.401,6.599-15,15-15S75,427.599,75,436z"/>
	<path style="fill:#575F64;" d="M75,196v30c0,8.399-6.599,15-15,15v-60C68.401,181,75,187.599,75,196z"/>
	<path style="fill:#575F64;" d="M75,286v30c0,8.399-6.599,15-15,15v-60C68.401,271,75,277.599,75,286z"/>
	<path style="fill:#99503D;" d="M75,436v76H60v-91C68.401,421,75,427.599,75,436z"/>
	<path style="fill:#DEECF1;" d="M512,121v376c0,8.284-6.716,15-15,15h-30l-15-30l-15,30h-45V121l60-30L512,121z"/>
	<path style="fill:#C5D3DD;" d="M512,121v376c0,8.284-6.716,15-15,15h-30l-15-30V91L512,121z"/>
	<g>
		<path style="fill:#FF9100;" d="M512,121H392L439.401,6.599C442.4,2.401,447.201,0,452,0s9.6,2.401,12.599,6.599L512,121z"/>
		<path style="fill:#F03800;" d="M512,121h-60V0c4.799,0,9.6,2.401,12.599,6.599L512,121z"/>
	</g>
	<path style="fill:#7C8388;" d="M467,196v30c0,8.399-6.599,15-15,15s-15-6.601-15-15v-30c0-8.401,6.599-15,15-15   S467,187.599,467,196z"/>
	<path style="fill:#7C8388;" d="M467,286v30c0,8.399-6.599,15-15,15s-15-6.601-15-15v-30c0-8.401,6.599-15,15-15   S467,277.599,467,286z"/>
	<path style="fill:#C6715A;" d="M467,436v76h-30v-76c0-8.401,6.599-15,15-15S467,427.599,467,436z"/>
	<path style="fill:#575F64;" d="M467,196v30c0,8.399-6.599,15-15,15v-60C460.401,181,467,187.599,467,196z"/>
	<path style="fill:#575F64;" d="M467,286v30c0,8.399-6.599,15-15,15v-60C460.401,271,467,277.599,467,286z"/>
	<path style="fill:#99503D;" d="M467,436v76h-15v-91C460.401,421,467,427.599,467,436z"/>
	<path style="fill:#C6715A;" d="M331,436v76h-30l-15-30l-15,30h-30l-15-30l-15,30h-30v-76c0-24.901,20.099-45,45-45   c11.7,0,21.899,4.499,30,11.7c8.101-7.202,18.3-11.7,30-11.7C310.901,391,331,411.099,331,436z"/>
	<path style="fill:#99503D;" d="M331,436v76h-30l-15-30l-15,30h-15V402.7c8.101-7.202,18.3-11.7,30-11.7   C310.901,391,331,411.099,331,436z"/>
	<path style="fill:#99503D;" d="M226,421c-8.284,0-15,6.714-15,15v76h30v-76C241,427.714,234.284,421,226,421z"/>
	<path style="fill:#804231;" d="M286,421c-8.284,0-15,6.714-15,15v76h30v-76C301,427.714,294.284,421,286,421z"/>
</g>















</svg>
