<svg height="512pt" viewBox="0 -135 512 512" width="512pt" xmlns="http://www.w3.org/2000/svg"><path d="m75.40625 63.992188v113.605468c0 20.824219-16.875 37.699219-37.707031 37.699219-20.824219 0-37.699219-16.875-37.699219-37.699219v-113.605468c0-20.824219 16.875-37.710938 37.699219-37.710938 10.414062 0 19.835937 4.21875 26.664062 11.046875 6.824219 6.824219 11.042969 16.246094 11.042969 26.664063zm0 0" fill="#40404c"/><path d="m75.40625 63.992188v64.683593c0 20.671875-16.316406 38.070313-36.980469 38.457031-.203125.003907-.40625.007813-.609375.007813-12.21875.039063-22.09375-9.984375-22.09375-22.203125v-80.945312c0-18.132813 12.792969-33.269532 29.835938-36.894532 7.265625 1.539063 13.746094 5.171875 18.804687 10.230469 6.824219 6.824219 11.042969 16.246094 11.042969 26.664063zm0 0" fill="#5b5b68"/><path d="m123.601562 86.246094h264.792969v69.089844h-264.792969zm0 0" fill="#e4e4ef"/><path d="m123.601562 128.882812h264.792969v26.453126h-264.792969zm0 0" fill="#cacadb"/><path d="m150.824219 37.703125v166.171875c0 20.824219-16.886719 37.707031-37.707031 37.707031-20.824219 0-37.710938-16.882812-37.710938-37.707031v-166.171875c0-20.820313 16.886719-37.69921875 37.710938-37.69921875 10.414062 0 19.835937 4.21874975 26.664062 11.04687475 6.824219 6.8125 11.042969 16.246094 11.042969 26.652344zm0 0" fill="#40404c"/><path d="m150.824219 37.703125v101.566406c0 20.808594-16.539063 38.253907-37.34375 38.453125-.195313 0-.390625 0-.582031 0-11.109376-.0625-20.039063-9.195312-20.039063-20.304687v-119.714844c0-17.816406 12.363281-32.746094 28.988281-36.683594 6.910156 1.644531 13.074219 5.171875 17.933594 10.03125 6.824219 6.8125 11.042969 16.246094 11.042969 26.652344zm0 0" fill="#5b5b68"/><path d="m398.878906 0c-20.824218 0-37.707031 16.882812-37.707031 37.707031v166.167969c0 20.824219 16.882813 37.707031 37.707031 37.707031 20.824219 0 37.707032-16.882812 37.707032-37.707031v-166.167969c0-20.824219-16.878907-37.707031-37.707032-37.707031zm0 0" fill="#40404c"/><path d="m419.140625 37.707031v101.566407c0 20.808593-16.539063 38.253906-37.34375 38.453124-.195313 0-.390625 0-.582031 0-11.113282-.0625-20.039063-9.199218-20.039063-20.308593v-119.710938c0-17.816406 12.363281-32.746093 28.988281-36.683593 6.90625 1.644531 13.074219 5.171874 17.933594 10.03125 6.824219 6.8125 11.042969 16.246093 11.042969 26.652343zm0 0" fill="#5b5b68"/><path d="m474.292969 26.28125c-20.824219 0-37.707031 16.882812-37.707031 37.707031v113.605469c0 20.824219 16.882812 37.707031 37.707031 37.707031s37.707031-16.882812 37.707031-37.707031v-113.605469c0-20.824219-16.882812-37.707031-37.707031-37.707031zm0 0" fill="#40404c"/><path d="m496.269531 63.992188v64.6875c0 20.667968-16.316406 38.070312-36.980469 38.457031-.203124.003906-.40625.007812-.609374.007812-12.21875.035157-22.09375-9.988281-22.09375-22.203125v-80.945312c0-18.132813 12.792968-33.269532 29.835937-36.894532 7.265625 1.539063 13.746094 5.171876 18.804687 10.230469 6.824219 6.824219 11.042969 16.246094 11.042969 26.660157zm0 0" fill="#5b5b68"/><g fill="#cacadb"><path d="m201.839844 86.246094h15.703125v69.089844h-15.703125zm0 0"/><path d="m294.453125 86.246094h15.703125v69.089844h-15.703125zm0 0"/><path d="m232.710938 86.246094h15.703124v69.089844h-15.703124zm0 0"/><path d="m263.582031 86.246094h15.703125v69.089844h-15.703125zm0 0"/></g></svg>