<?xml version="1.0"?>
<svg xmlns="http://www.w3.org/2000/svg" viewBox="0 0 64 64" width="512" height="512"><g id="flat"><rect x="3" y="20" width="58" height="27" style="fill:#d3843d"/><rect x="41" y="24" width="12" height="4" style="fill:#dd3e46"/><rect x="23" y="24" width="14" height="4" style="fill:#dd3e46"/><rect x="7" y="16" width="8" height="4" style="fill:#f1c056"/><rect x="53" y="16" width="4" height="4" style="fill:#f1c056"/><rect x="45" y="16" width="4" height="4" style="fill:#f1c056"/><rect x="12" y="32" width="4" height="8" style="fill:#113142"/><polygon points="12 32 12 40 14 40 14 47 8 47 8 32 12 32" style="fill:#e8e8e8"/><polygon points="16 32 16 40 14 40 14 47 20 47 20 32 16 32" style="fill:#bfbfbf"/><rect x="24" y="32" width="4" height="8" style="fill:#113142"/><polygon points="24 32 24 40 26 40 26 47 20 47 20 32 24 32" style="fill:#e8e8e8"/><polygon points="28 32 28 40 26 40 26 47 32 47 32 32 28 32" style="fill:#bfbfbf"/><rect x="36" y="32" width="4" height="8" style="fill:#113142"/><polygon points="36 32 36 40 38 40 38 47 32 47 32 32 36 32" style="fill:#e8e8e8"/><polygon points="40 32 40 40 38 40 38 47 44 47 44 32 40 32" style="fill:#bfbfbf"/><rect x="48" y="32" width="4" height="8" style="fill:#113142"/><polygon points="48 32 48 40 50 40 50 47 44 47 44 32 48 32" style="fill:#e8e8e8"/><polygon points="52 32 52 40 50 40 50 47 56 47 56 32 52 32" style="fill:#bfbfbf"/><circle cx="9" cy="26" r="2" style="fill:#113142"/><circle cx="17" cy="26" r="2" style="fill:#113142"/><rect x="56" y="23" width="2" height="2" style="fill:#fff"/></g></svg>
